<?xml version="1.0" standalone="no"?>
<!DOCTYPE svg PUBLIC "-//W3C//DTD SVG 20010904//EN"
 "http://www.w3.org/TR/2001/REC-SVG-20010904/DTD/svg10.dtd">
<svg version="1.0" xmlns="http://www.w3.org/2000/svg"
 width="627.000000pt" height="627.000000pt" viewBox="0 0 627.000000 627.000000"
 preserveAspectRatio="xMidYMid meet">
<metadata>
Created by potrace 1.14, written by Peter Selinger 2001-2017
</metadata>
<g transform="translate(0.000000,627.000000) scale(0.100000,-0.100000)"
fill="#000000" stroke="none">
<path d="M2970 5451 c-128 -75 -292 -170 -540 -313 -192 -111 -367 -212 -570
-330 -100 -58 -152 -94 -167 -117 -23 -34 -23 -36 -23 -403 l0 -369 25 -24 24
-25 691 0 691 0 24 25 25 24 0 789 c0 599 -3 791 -12 800 -21 21 -51 11 -168
-57z m-500 -661 c30 -6 77 -21 105 -34 51 -23 125 -80 125 -97 0 -5 -61 -9
-135 -9 -108 0 -141 3 -160 16 -50 33 -106 -11 -91 -71 10 -39 50 -54 88 -32
25 14 58 17 212 17 l182 0 46 -29 c52 -33 94 -85 114 -138 27 -78 46 -73 -256
-73 -232 0 -274 2 -295 16 -32 21 -72 11 -87 -21 -27 -60 29 -113 85 -81 24
14 69 16 293 16 259 0 264 0 264 -20 0 -55 -75 -151 -146 -186 -36 -18 -66
-19 -394 -22 l-355 -3 -55 28 c-90 46 -80 53 77 53 110 0 143 -3 161 -16 32
-22 73 -14 92 19 13 24 13 30 -1 55 -13 23 -20 27 -55 24 -21 -2 -121 -6 -221
-8 -181 -5 -182 -5 -195 18 -14 25 -18 161 -6 191 7 16 22 17 195 13 104 -2
206 -6 227 -8 35 -3 42 1 55 25 14 24 14 30 1 54 -19 33 -41 39 -89 24 -23 -8
-91 -11 -186 -9 l-150 3 55 37 c30 20 66 40 80 43 15 4 37 25 54 52 47 74 148
136 245 153 66 11 63 11 121 0z"/>
<path d="M3317 5513 c-4 -3 -7 -365 -7 -804 l0 -798 26 -20 c26 -21 34 -21
716 -21 l689 0 25 25 25 25 -3 372 c-3 363 -4 374 -25 403 -14 21 -153 106
-445 275 -232 134 -542 313 -688 397 -244 141 -295 165 -313 146z m693 -628
c0 -69 -3 -85 -15 -85 -12 0 -15 16 -15 85 0 69 3 85 15 85 12 0 15 -16 15
-85z m-210 -47 c25 -43 37 -75 32 -80 -6 -6 -17 2 -29 19 -26 35 -63 109 -63
123 0 26 22 4 60 -62z m415 -12 c-39 -70 -50 -82 -60 -66 -3 6 8 36 26 68 43
76 50 85 62 73 6 -6 -5 -34 -28 -75z m-112 -83 c97 -38 161 -120 179 -225 15
-85 -6 -153 -78 -260 -46 -66 -57 -91 -61 -135 l-6 -54 -146 3 -146 3 -2 49
c-2 38 -10 60 -33 90 -16 23 -46 69 -66 104 -63 110 -57 238 16 331 86 109
215 144 343 94z m-453 -54 c47 -27 68 -45 62 -51 -13 -13 -152 60 -152 79 0
20 13 16 90 -28z m778 29 c-5 -15 -127 -88 -146 -88 -26 0 -6 21 58 60 67 40
95 49 88 28z m-300 -685 c-3 -16 -19 -18 -136 -21 -127 -2 -132 -2 -132 18 0
19 6 20 136 20 124 0 135 -2 132 -17z m-38 -53 c0 -18 -47 -41 -87 -43 -46 -1
-103 20 -103 39 0 11 21 14 95 14 55 0 95 -4 95 -10z"/>
<path d="M1695 3697 l-28 -23 1 -373 c1 -353 2 -374 21 -404 15 -24 84 -69
288 -187 147 -84 446 -257 663 -383 217 -126 414 -239 437 -250 78 -38 73 -96
73 797 0 765 -1 792 -20 816 l-19 25 -695 3 -694 2 -27 -23z m566 -166 c8 -22
18 -30 47 -35 26 -4 39 -1 45 9 10 18 27 19 62 3 22 -10 26 -17 23 -40 -6 -37
32 -73 75 -73 23 0 35 -7 46 -27 14 -24 14 -28 -3 -47 -16 -17 -16 -25 -6 -55
8 -24 18 -36 30 -36 44 0 53 -80 10 -90 -23 -5 -36 -30 -39 -70 -1 -14 102
-85 124 -85 5 0 12 11 15 25 6 22 11 25 43 22 28 -2 38 2 47 18 12 23 35 26
47 7 12 -20 44 -29 59 -16 16 13 48 -6 38 -23 -9 -14 16 -38 41 -38 25 0 39
-22 23 -38 -13 -13 0 -52 18 -52 8 0 14 -9 14 -20 0 -11 -5 -20 -10 -20 -16 0
-29 -43 -18 -57 14 -18 2 -43 -20 -43 -24 0 -46 -25 -37 -41 11 -16 -15 -29
-47 -22 -21 4 -32 0 -46 -16 l-17 -22 -24 20 c-27 24 -42 26 -59 9 -14 -14
-46 8 -38 27 6 17 -14 35 -40 35 -24 0 -40 28 -25 43 12 12 2 47 -15 47 -8 0
-14 10 -14 25 0 16 6 25 15 25 37 0 9 30 -56 59 l-71 32 -21 -28 c-12 -15 -22
-41 -22 -57 0 -22 -7 -34 -27 -45 -24 -14 -28 -14 -45 2 -16 14 -26 15 -56 6
-25 -7 -37 -16 -37 -27 0 -26 -20 -42 -53 -42 -22 0 -30 6 -38 29 -8 22 -18
30 -47 34 -25 5 -41 2 -53 -9 -14 -12 -24 -14 -46 -7 -23 8 -28 16 -29 41 0
46 -38 83 -76 75 -46 -9 -75 41 -43 77 23 26 0 88 -34 92 -22 3 -26 9 -29 41
-3 34 0 39 26 48 40 14 52 73 20 99 -21 17 -21 17 -2 49 16 27 24 32 45 27 38
-7 86 43 70 73 -9 16 -7 24 11 41 26 24 45 25 69 4 15 -14 21 -14 53 0 24 10
36 22 36 35 0 22 12 29 53 30 22 1 30 -5 38 -28z"/>
<path d="M2179 3413 c-15 -2 -50 -18 -79 -36 -185 -112 -139 -391 74 -448 70
-19 174 9 220 60 18 20 18 20 -40 46 -33 15 -81 36 -109 47 -62 26 -85 51 -85
94 0 38 29 64 70 64 14 0 72 -29 130 -65 l105 -64 7 27 c23 84 -40 205 -133
252 -38 20 -116 31 -160 23z"/>
<path d="M2204 3186 c-10 -26 4 -48 28 -44 17 2 23 10 23 28 0 18 -6 26 -23
28 -13 2 -25 -3 -28 -12z"/>
<path d="M2739 2972 l-22 -19 61 -38 c65 -40 73 -54 45 -76 -15 -11 -16 -11
-5 1 18 20 15 42 -5 38 -11 -2 -17 -11 -15 -21 4 -21 3 -21 -49 3 -24 11 -50
20 -56 20 -20 0 -15 -51 7 -87 57 -94 196 -81 235 22 35 91 -25 175 -125 175
-32 0 -56 -6 -71 -18z"/>
<path d="M3325 3687 c-13 -21 -15 -119 -13 -818 l3 -794 23 -3 c15 -2 86 33
205 101 100 58 229 132 287 165 864 495 910 523 935 566 l25 43 0 355 c0 344
-1 356 -21 382 l-20 26 -704 0 -705 0 -15 -23z m963 -324 c285 -71 305 -79
283 -122 -6 -10 -23 -21 -38 -24 l-28 -5 7 -169 c4 -92 7 -177 8 -187 2 -30
-34 -60 -63 -52 -29 7 -48 51 -36 81 4 11 8 84 8 163 1 131 0 143 -16 140 -10
-2 -107 -25 -217 -53 l-198 -49 -281 70 c-290 72 -315 83 -291 121 8 12 89 37
275 84 145 37 275 68 289 68 14 1 148 -29 298 -66z m-468 -278 c76 -19 157
-35 180 -35 23 0 104 16 180 35 76 19 144 35 149 35 18 0 14 -231 -4 -257 -40
-57 -264 -96 -430 -75 -99 12 -184 39 -216 68 -17 15 -19 32 -19 141 0 79 4
123 11 123 5 0 73 -16 149 -35z"/>
<path d="M3150 1769 c-88 -36 -113 -151 -50 -232 l21 -26 -31 -22 c-37 -28
-70 -94 -70 -140 0 -57 39 -120 90 -148 59 -33 147 -34 207 -3 23 12 45 27 48
33 5 7 19 -1 40 -21 22 -21 40 -31 56 -28 38 5 35 36 -6 78 l-37 38 18 33 c11
22 18 58 18 99 l1 65 -30 0 c-28 0 -30 -2 -37 -53 -14 -94 -15 -94 -119 17
-106 114 -118 133 -119 179 0 73 81 97 144 41 29 -25 38 -28 56 -19 42 23 13
84 -53 109 -35 13 -113 13 -147 0z m97 -391 c40 -40 73 -78 73 -84 0 -17 -62
-44 -100 -44 -62 0 -109 43 -110 100 0 38 32 100 52 100 7 0 45 -33 85 -72z"/>
<path d="M1132 1762 c-9 -7 -12 -72 -10 -293 l3 -284 162 -3 c154 -2 163 -1
173 18 8 14 8 26 0 40 -10 18 -21 20 -135 20 l-125 0 0 90 0 89 73 3 72 3 0
30 0 30 -72 3 -73 3 0 89 0 89 126 3 c108 3 128 6 138 21 8 12 8 22 0 35 -10
15 -31 17 -165 19 -85 2 -160 -1 -167 -5z"/>
<path d="M1543 1759 c-10 -10 -13 -81 -13 -285 0 -228 2 -274 15 -284 10 -9
48 -11 127 -9 134 5 173 22 204 91 16 36 19 66 19 208 0 155 -1 168 -23 206
-38 66 -69 78 -202 82 -84 3 -118 0 -127 -9z m234 -93 c28 -24 28 -25 31 -168
5 -214 -7 -238 -128 -238 l-60 0 0 215 0 215 64 0 c54 0 70 -4 93 -24z"/>
<path d="M2002 1758 c-9 -9 -12 -74 -12 -232 0 -199 2 -224 20 -261 31 -64 82
-88 175 -83 83 4 116 21 150 79 18 31 20 52 20 264 l0 229 -27 10 c-55 19 -58
7 -58 -234 0 -202 -1 -219 -20 -243 -37 -47 -122 -44 -155 7 -14 21 -17 57
-16 240 0 202 -1 216 -19 226 -25 13 -43 13 -58 -2z"/>
<path d="M2563 1760 c-46 -15 -89 -62 -102 -114 -14 -56 -14 -285 0 -346 18
-81 76 -120 174 -120 69 0 113 18 148 60 23 27 27 41 25 79 -3 45 -4 46 -38
46 -31 0 -35 -3 -43 -37 -12 -51 -40 -73 -94 -73 -37 0 -49 5 -69 28 -23 27
-24 34 -24 182 0 92 5 164 11 178 19 43 81 59 133 36 22 -10 32 -27 50 -81 8
-28 64 -24 75 4 9 25 -1 69 -23 103 -31 47 -151 77 -223 55z"/>
<path d="M3680 1750 c-7 -14 -8 -26 0 -40 8 -15 23 -20 78 -22 l67 -3 3 -247
c2 -236 3 -247 22 -253 11 -4 29 -4 40 0 19 6 20 17 22 253 l3 247 70 5 c68 5
70 6 73 34 2 16 -2 32 -10 37 -7 5 -90 9 -185 9 -162 0 -173 -1 -183 -20z"/>
<path d="M4143 1764 c-10 -4 -13 -72 -13 -290 l0 -284 23 -5 c12 -3 87 -4 166
-3 124 3 145 5 155 21 8 12 8 22 0 35 -10 14 -30 17 -138 20 l-126 3 0 89 0
89 73 3 72 3 0 30 0 30 -72 3 -73 3 0 89 0 89 126 3 c108 3 128 6 138 21 8 12
8 22 0 35 -10 15 -31 17 -165 19 -85 1 -160 -1 -166 -3z"/>
<path d="M4635 1756 c-89 -33 -108 -87 -103 -305 2 -125 7 -163 21 -192 26
-51 80 -79 156 -79 111 0 185 60 179 145 -3 38 -4 40 -38 40 -31 0 -35 -3 -45
-37 -15 -55 -38 -73 -91 -73 -38 0 -50 5 -70 28 -23 27 -24 33 -24 185 0 180
7 202 61 216 65 16 104 -3 124 -60 12 -35 17 -39 47 -39 31 0 33 2 36 40 5 79
-56 132 -161 141 -32 3 -68 -1 -92 -10z"/>
<path d="M4982 1758 c-17 -17 -17 -549 0 -566 15 -15 51 -15 66 0 8 8 12 53
12 135 l0 123 100 0 100 0 0 -129 c0 -121 1 -130 20 -136 11 -3 29 -3 40 0 19
6 20 15 20 290 0 275 -1 284 -20 290 -11 3 -29 3 -40 0 -19 -6 -20 -15 -20
-126 l0 -119 -100 0 -100 0 0 115 c0 103 -2 115 -19 125 -26 13 -44 13 -59 -2z"/>
<path d="M1365 1013 c-32 -8 -55 -34 -55 -62 1 -35 16 -52 73 -79 46 -21 48
-24 45 -59 -4 -49 -39 -64 -88 -39 -38 19 -45 17 -27 -8 7 -9 31 -20 53 -23
55 -7 88 20 87 71 -1 46 -16 64 -71 87 -74 32 -69 83 9 86 65 2 64 2 54 12
-14 12 -56 19 -80 14z"/>
<path d="M1870 1010 c-37 -9 -50 -45 -50 -138 0 -75 2 -85 25 -107 29 -30 77
-33 104 -6 24 24 34 87 27 160 -8 77 -42 107 -106 91z m68 -32 c19 -19 16
-183 -4 -202 -19 -19 -44 -20 -67 -3 -22 16 -27 194 -6 208 20 13 63 11 77 -3z"/>
<path d="M2442 1004 c-7 -14 -65 -201 -76 -244 0 -3 3 -6 9 -8 5 -2 13 11 18
27 7 30 10 31 62 31 30 0 55 -4 55 -9 0 -22 21 -62 29 -57 9 6 -63 254 -78
269 -5 5 -13 1 -19 -9z m34 -91 c9 -32 19 -64 21 -70 4 -9 -8 -13 -41 -13 -25
0 -46 2 -46 4 0 11 41 136 45 136 2 0 12 -26 21 -57z"/>
<path d="M3070 1010 c-37 -9 -50 -45 -50 -138 0 -75 2 -85 25 -107 30 -31 77
-33 106 -4 16 16 19 30 17 72 -3 48 -5 52 -28 53 -14 0 -31 -2 -37 -4 -20 -7
-3 -23 20 -20 19 3 22 -3 25 -33 5 -62 -46 -91 -88 -49 -17 17 -20 33 -20 99
0 60 4 84 16 96 24 23 76 16 89 -12 12 -28 25 -30 25 -5 0 37 -52 64 -100 52z"/>
<path d="M3353 1012 c-41 -6 -53 -38 -53 -137 0 -113 10 -130 74 -130 25 0 51
6 58 13 20 20 24 196 5 226 -16 24 -45 34 -84 28z m67 -41 c5 -11 10 -56 10
-100 0 -71 -2 -82 -22 -95 -59 -42 -88 -10 -88 95 0 99 9 119 55 119 24 0 38
-6 45 -19z"/>
<path d="M3592 1012 c-9 -6 -12 -41 -10 -138 l3 -129 73 -3 c42 -2 72 1 72 7
0 15 -36 23 -83 19 -35 -2 -42 0 -41 15 1 9 2 33 3 52 1 32 4 35 31 35 17 0
30 5 30 10 0 6 -13 10 -30 10 -29 0 -30 1 -30 50 l0 50 45 1 c62 2 65 3 68 14
3 12 -113 18 -131 7z"/>
<path d="M3890 1013 c-52 -19 -66 -77 -28 -113 12 -11 27 -20 34 -20 6 0 23
-10 38 -21 21 -16 26 -28 24 -52 -4 -41 -44 -56 -90 -33 -39 20 -51 11 -19
-15 54 -44 133 -12 133 55 0 44 -11 57 -72 88 -35 18 -45 28 -45 48 0 32 36
51 76 40 26 -8 50 2 32 13 -16 9 -68 15 -83 10z"/>
<path d="M4483 1014 c-10 -4 -13 -42 -13 -140 l0 -134 75 0 c42 0 75 4 75 10
0 10 -35 21 -60 18 -8 0 -27 0 -42 0 -27 2 -28 5 -28 52 l0 50 35 0 c19 0 35
5 35 10 0 6 -16 10 -35 10 l-35 0 0 50 0 49 63 3 c34 2 62 8 62 13 0 10 -111
18 -132 9z"/>
<path d="M4748 1014 c-12 -12 -10 -276 2 -269 6 3 10 33 10 66 0 55 2 59 23
59 18 0 29 -14 56 -65 18 -36 37 -63 42 -60 5 4 -5 33 -21 66 -17 32 -26 59
-21 59 19 0 51 44 51 71 0 42 -28 68 -85 75 -27 3 -53 2 -57 -2z m118 -60 c9
-36 -20 -64 -68 -64 l-38 0 0 49 c0 44 3 50 23 53 37 6 77 -12 83 -38z"/>
<path d="M5017 1013 c-4 -3 -7 -66 -7 -140 l0 -133 69 0 c67 0 98 11 65 24 -9
3 -38 6 -65 6 l-49 0 0 50 0 50 35 0 c19 0 35 5 35 10 0 6 -16 10 -35 10 l-35
0 0 50 0 50 50 1 c28 1 55 3 60 4 6 1 13 3 18 4 4 1 0 6 -8 11 -17 11 -123 14
-133 3z"/>
<path d="M1580 875 l0 -135 65 0 c36 0 65 4 65 9 0 13 -27 21 -71 21 l-39 0 0
120 c0 73 -4 120 -10 120 -6 0 -10 -52 -10 -135z"/>
<path d="M2126 995 c-21 -22 -29 -74 -23 -152 5 -75 26 -103 77 -103 45 0 70
28 76 84 6 52 -3 66 -43 66 -35 0 -37 -20 -3 -27 30 -6 31 -8 25 -42 -10 -56
-50 -77 -90 -47 -16 12 -19 26 -17 101 1 95 10 115 51 115 31 0 45 -9 54 -33
4 -10 11 -15 17 -12 15 9 12 23 -10 45 -24 24 -91 27 -114 5z"/>
<path d="M2660 881 c0 -76 4 -132 10 -136 6 -4 10 30 10 94 0 56 3 101 8 101
4 0 30 -44 57 -97 28 -53 55 -96 60 -97 6 -1 11 51 13 132 2 112 0 132 -12
132 -12 0 -16 -19 -18 -97 l-3 -98 -50 95 c-27 51 -56 96 -62 98 -10 3 -13
-27 -13 -127z"/>
<path d="M4180 881 c0 -136 17 -193 22 -75 l3 67 43 -1 c23 0 46 -1 52 -1 5
-1 10 -29 12 -63 2 -35 8 -63 13 -63 6 0 11 53 13 133 2 113 0 132 -13 132
-12 0 -15 -12 -15 -54 l0 -54 -38 -4 c-68 -6 -72 -3 -72 58 0 30 -4 54 -10 54
-6 0 -10 -50 -10 -129z"/>
</g>
</svg>
